<svg version="1.1" xmlns="http://www.w3.org/2000/svg" xmlns:xlink="http://www.w3.org/1999/xlink" width="533.03304" height="390.39039" viewBox="0,0,533.03304,390.39039"><g transform="translate(20.51502,5.04279)"><g data-paper-data="{&quot;isPaintingLayer&quot;:true}" fill="#adadad" fill-rule="nonzero" stroke="none" stroke-width="0" stroke-linecap="butt" stroke-linejoin="miter" stroke-miterlimit="10" stroke-dasharray="" stroke-dashoffset="0" style="mix-blend-mode: normal"><path d="M-19.01352,383.84611v-385.88589h39.03904v385.88589z"/><path d="M-10.00451,385.34761v-49.54955h506.00601v49.54955z"/><path d="M447.95344,355.31758v-352.85285h48.04805v352.85285z"/><path d="M45.55104,88.0503v-21.02102h102.1021v21.02102z"/><path d="M125.13062,233.69596v-160.66066h25.52553v160.66066z"/><path d="M48.55405,239.70196v-16.51652h93.09309v16.51652z"/><path d="M50.05555,163.12539v-75.07508h25.52553v75.07508z"/><path d="M83.08858,172.13438v-30.03003h52.55255v30.03003z"/><path d="M171.67717,239.70196v-160.66066h16.51652v160.66066z"/><path d="M182.18768,242.70496v-25.52553h91.59159v25.52553z"/><path d="M266.27176,236.69896v-153.15315h22.52252v153.15315z"/><path d="M221.22672,86.5488v-21.02102h66.06607v21.02102z"/><path d="M246.75224,326.78905v-15.01502h139.63964v15.01502z"/><path d="M-20.51502,27.99024v-33.03303h530.03003v33.03303z"/><path d="M-16.01051,383.84611v-385.88589h39.03904v385.88589z"/><path d="M-7.0015,385.34761v-49.54955h506.00601v49.54955z"/><path d="M450.95645,355.31758v-352.85285h48.04805v352.85285z"/><path d="M48.55405,88.0503v-21.02102h102.1021v21.02102z"/><path d="M128.13363,233.69596v-160.66066h25.52553v160.66066z"/><path d="M51.55706,239.70196v-16.51652h93.09309v16.51652z"/><path d="M53.05856,163.12539v-75.07508h25.52553v75.07508z"/><path d="M86.09159,172.13438v-30.03003h52.55255v30.03003z"/><path d="M174.68018,239.70196v-160.66066h16.51652v160.66066z"/><path d="M185.19069,242.70496v-25.52553h91.59159v25.52553z"/><path d="M269.27477,236.69896v-153.15315h22.52252v153.15315z"/><path d="M224.22973,86.5488v-21.02102h66.06607v21.02102z"/><path d="M249.75525,326.78905v-15.01502h139.63964v15.01502z"/><path d="M-17.51201,27.99024v-33.03303h530.03003v33.03303z"/><path d="M324.83033,233.69595v-118.61862h24.02402v118.61862z"/><path d="M269.27477,310.27252v-57.05706h12.01201v57.05706z"/><path d="M335.34084,308.77102v-58.55856h10.51051v58.55856z"/></g></g></svg>