<svg version="1.1" xmlns="http://www.w3.org/2000/svg" xmlns:xlink="http://www.w3.org/1999/xlink" width="530.03003" height="390.39039" viewBox="0,0,530.03003,390.39039"><g transform="translate(19.01351,5.04279)"><g data-paper-data="{&quot;isPaintingLayer&quot;:true}" fill="#adadad" fill-rule="nonzero" stroke="none" stroke-width="0" stroke-linecap="butt" stroke-linejoin="miter" stroke-miterlimit="10" stroke-dasharray="" stroke-dashoffset="0" style="mix-blend-mode: normal"><path d="M-17.51201,383.8461v-385.88589h39.03904v385.88589z"/><path d="M-8.503,385.3476v-49.54955h506.00601v49.54955z"/><path d="M449.45495,355.31757v-352.85285h48.04805v352.85285z"/><path d="M47.05255,88.0503v-21.02102h102.1021v21.02102z"/><path d="M126.63213,233.69595v-160.66066h25.52553v160.66066z"/><path d="M50.05556,239.70195v-16.51652h93.09309v16.51652z"/><path d="M51.55706,163.12538v-75.07508h25.52553v75.07508z"/><path d="M84.59009,172.13438v-30.03003h52.55255v30.03003z"/><path d="M173.17868,239.70195v-160.66066h16.51652v160.66066z"/><path d="M183.68919,242.70495v-25.52553h91.59159v25.52553z"/><path d="M267.77327,236.69895v-153.15315h22.52252v153.15315z"/><path d="M222.72823,86.5488v-21.02102h66.06607v21.02102z"/><path d="M248.25375,326.78904v-15.01502h139.63964v15.01502z"/><path d="M293.2988,281.74399c0,9.12182 -8.06694,16.51652 -18.01802,16.51652c-9.95108,0 -18.01802,-7.3947 -18.01802,-16.51652c0,-9.12182 8.06694,-16.51652 18.01802,-16.51652c9.95108,0 18.01802,7.3947 18.01802,16.51652z"/><path d="M354.01952,281.74399c0,7.46331 -6.53422,13.51351 -14.59459,13.51351c-8.06037,0 -14.59459,-6.05021 -14.59459,-13.51351c0,-7.46331 6.53422,-13.51351 14.59459,-13.51351c8.06037,0 14.59459,6.05021 14.59459,13.51351z"/><path d="M291.52182,207.94947l77.40133,-83.85144l13.2397,12.22126l-77.40133,83.85144z"/><path d="M360.29207,215.80404l-62.16331,-69.2968l16.76536,-15.03951l62.16331,69.2968z"/><path d="M-19.01351,27.99024v-33.03303h530.03003v33.03303z"/></g></g></svg>